<svg xmlns="http://www.w3.org/2000/svg" xmlns:xlink="http://www.w3.org/1999/xlink" viewBox="0 0 32 32"><defs><style>.cls-1{fill:url(#linear-gradient);}</style><linearGradient id="linear-gradient" x1="4.48" y1="29.78" x2="25.89" y2="13.33" gradientUnits="userSpaceOnUse"><stop offset="0" stop-color="#92c83e"/><stop offset="1" stop-color="#1ba8e0"/></linearGradient></defs><g id="Option_A_Colors_1" data-name="Option A_Colors 1"><path class="cls-1" d="M28.77,21.34a.61.61,0,0,1-.48-.25l-12.24-17L6.63,17.16a.59.59,0,0,1-.47.24H3.23a.59.59,0,1,1,0-1.17H5.85L15.58,2.71a.56.56,0,0,1,.47-.25h0a.58.58,0,0,1,.48.25l12.72,17.7a.58.58,0,0,1-.14.82A.6.6,0,0,1,28.77,21.34Zm-8.41-8.57a.59.59,0,0,0-.59-.58H12.26a.59.59,0,1,0,0,1.17h7.51A.59.59,0,0,0,20.36,12.77Zm-2.17-4a.59.59,0,0,0-.59-.59H14.43a.59.59,0,0,0,0,1.18H17.6A.59.59,0,0,0,18.19,8.73Zm5.45,8.09a.58.58,0,0,0-.59-.59H19.7a.59.59,0,1,0,0,1.17h3.35A.58.58,0,0,0,23.64,16.82Zm-6,0a.58.58,0,0,0-.58-.59H9.25a.59.59,0,0,0,0,1.17H17A.58.58,0,0,0,17.61,16.82Zm8,4.05a.58.58,0,0,0-.59-.59H10.5a.59.59,0,1,0,0,1.17H25A.58.58,0,0,0,25.63,20.87Zm-17.32,0a.58.58,0,0,0-.59-.59H3.23a.59.59,0,1,0,0,1.17H7.72A.58.58,0,0,0,8.31,20.87Zm21,4a.6.6,0,0,0-.59-.59H12.88a.6.6,0,0,0-.59.59.59.59,0,0,0,.59.59H28.77A.59.59,0,0,0,29.36,24.9Zm-19,0a.59.59,0,0,0-.59-.59H3.23a.6.6,0,0,0-.59.59.59.59,0,0,0,.59.59H9.77A.58.58,0,0,0,10.36,24.9Zm19,4.05a.6.6,0,0,0-.59-.59H3.23a.59.59,0,1,0,0,1.18H28.77A.6.6,0,0,0,29.36,29Z"/></g></svg>